<?xml version="1.0" standalone="no"?>
<!DOCTYPE svg PUBLIC "-//W3C//DTD SVG 20010904//EN"
 "http://www.w3.org/TR/2001/REC-SVG-20010904/DTD/svg10.dtd">
<svg version="1.0" xmlns="http://www.w3.org/2000/svg"
 width="512.000000pt" height="512.000000pt" viewBox="0 0 512.000000 512.000000"
 preserveAspectRatio="xMidYMid meet">
<metadata>
Created by potrace 1.11, written by Peter Selinger 2001-2013
</metadata>
<g transform="translate(0.000000,512.000000) scale(0.100000,-0.100000)"
fill="#000000" stroke="none">
<path d="M2285 4939 c-442 -54 -849 -222 -1205 -498 -109 -84 -317 -292 -401
-401 -280 -361 -446 -766 -499 -1220 -14 -122 -14 -398 0 -520 54 -462 225
-873 515 -1241 85 -108 296 -313 408 -398 367 -275 757 -431 1206 -482 147
-16 503 -6 646 19 751 132 1393 602 1734 1272 178 347 262 696 262 1085 1 541
-161 1020 -492 1462 -85 112 -290 323 -398 408 -361 284 -766 455 -1211 511
-124 15 -449 17 -565 3z m398 -1814 c111 -23 192 -69 283 -160 59 -58 90 -98
113 -148 79 -167 79 -350 -1 -515 -44 -92 -168 -216 -260 -260 -230 -112 -481
-70 -660 108 -184 183 -226 430 -114 666 48 101 160 215 259 263 120 58 249
74 380 46z m-796 -717 c78 -326 343 -538 673 -538 330 0 595 212 673 538 l22
92 792 0 793 0 0 -38 c0 -66 -29 -288 -51 -389 -66 -308 -213 -627 -412 -892
-92 -123 -315 -346 -438 -438 -528 -395 -1177 -546 -1815 -423 -800 155 -1470
744 -1727 1516 -65 195 -117 474 -117 624 l0 40 793 0 792 0 22 -92z"/>
<path d="M2443 2902 c-100 -36 -171 -101 -216 -199 -18 -39 -22 -66 -22 -143
0 -82 4 -103 27 -152 34 -73 98 -137 174 -174 53 -26 69 -29 154 -29 85 0 101
3 155 29 73 36 135 99 172 174 25 50 28 68 28 152 0 85 -3 101 -29 154 -38 77
-102 141 -174 174 -76 35 -194 41 -269 14z m230 -121 c136 -66 176 -251 82
-374 -118 -154 -369 -112 -430 73 -71 212 145 399 348 301z"/>
</g>
</svg>
